<?xml version="1.0" standalone="no"?>
<!DOCTYPE svg PUBLIC "-//W3C//DTD SVG 20010904//EN"
 "http://www.w3.org/TR/2001/REC-SVG-20010904/DTD/svg10.dtd">
<svg version="1.0" xmlns="http://www.w3.org/2000/svg"
 width="347.000000pt" height="347.000000pt" viewBox="0 0 347.000000 347.000000"
 preserveAspectRatio="xMidYMid meet">
<metadata>
Created by potrace 1.14, written by Peter Selinger 2001-2017
</metadata>
<g transform="translate(0.000000,347.000000) scale(0.100000,-0.100000)"
fill="#000000" stroke="none">
<path d="M1585 3241 c-49 -10 -151 -31 -225 -45 -74 -15 -173 -35 -220 -46
-47 -11 -137 -29 -200 -41 -441 -81 -579 -112 -608 -138 -14 -12 -39 -25 -56
-28 -103 -20 -211 -142 -253 -287 -7 -28 -17 -107 -20 -176 -4 -103 -2 -144
16 -233 11 -59 27 -120 35 -135 7 -15 17 -41 20 -59 4 -18 15 -42 25 -55 9
-13 29 -43 43 -68 28 -49 124 -163 142 -169 38 -13 46 -34 46 -125 0 -90 13
-357 29 -592 5 -66 14 -129 21 -141 7 -11 32 -31 56 -44 24 -13 46 -29 48 -36
3 -7 11 -13 18 -13 7 0 25 -6 40 -14 14 -8 43 -19 65 -26 21 -7 60 -23 87 -36
28 -13 55 -24 61 -24 7 0 46 -16 88 -35 42 -19 82 -35 90 -35 8 0 35 -11 61
-25 26 -14 53 -25 60 -25 8 0 48 -16 90 -35 43 -19 82 -35 88 -35 5 0 31 -10
57 -23 25 -13 60 -27 76 -31 17 -4 58 -21 93 -37 35 -16 66 -29 69 -29 7 0
176 -66 220 -86 18 -8 51 -21 73 -29 22 -8 55 -20 73 -28 77 -33 100 -36 172
-23 47 8 90 25 130 49 33 20 78 46 100 56 22 11 55 31 74 45 19 15 39 26 43
26 5 0 26 12 48 26 22 14 53 34 69 43 16 9 57 32 91 51 34 19 75 42 91 51 17
10 47 28 67 41 54 34 71 44 132 78 30 17 80 46 110 65 30 19 62 37 70 41 20 9
124 70 180 106 81 52 85 74 110 563 9 188 16 295 50 755 5 69 12 179 15 245 3
66 10 203 16 305 12 207 5 254 -43 277 -36 18 -179 40 -368 57 -91 9 -217 23
-280 31 -63 9 -182 22 -265 30 -82 8 -202 21 -265 30 -128 18 -387 44 -495 50
-43 2 -105 -3 -160 -14z m-1276 -593 c1 -68 1 -68 -26 -68 -16 0 -45 -5 -66
-11 -22 -6 -41 -8 -44 -5 -8 8 29 118 51 151 11 17 32 43 46 58 l25 28 7 -43
c3 -24 7 -73 7 -110z m5 -284 c3 -26 6 -128 6 -226 l0 -180 -25 31 c-59 69
-135 273 -135 360 0 28 4 32 48 45 26 8 59 15 73 15 24 1 27 -3 33 -45z"/>
</g>
</svg>
