<?xml version="1.0" standalone="no"?>
<!DOCTYPE svg PUBLIC "-//W3C//DTD SVG 20010904//EN"
 "http://www.w3.org/TR/2001/REC-SVG-20010904/DTD/svg10.dtd">
<svg version="1.0" xmlns="http://www.w3.org/2000/svg"
 width="460.000000pt" height="460.000000pt" viewBox="0 0 460.000000 460.000000"
 preserveAspectRatio="xMidYMid meet">
<metadata>
Created by potrace 1.14, written by Peter Selinger 2001-2017
</metadata>
<g transform="translate(0.000000,460.000000) scale(0.100000,-0.100000)"
fill="#000000" stroke="none">
<path d="M3895 3368 c-27 -11 -90 -30 -140 -44 -188 -50 -271 -73 -298 -83
-15 -6 -58 -18 -95 -26 -36 -9 -87 -23 -112 -32 -25 -8 -70 -21 -100 -28 -63
-15 -154 -41 -325 -94 -118 -36 -120 -37 -139 -76 -11 -22 -25 -44 -33 -48 -9
-5 -13 -30 -13 -74 l0 -65 -32 24 c-18 14 -51 34 -73 45 -78 39 -94 50 -163
111 -38 34 -73 62 -76 62 -4 0 -23 11 -44 25 -43 28 -144 60 -219 69 -39 5
-78 0 -166 -23 -126 -32 -197 -70 -258 -137 l-35 -40 -49 53 c-26 29 -52 53
-56 53 -5 0 -25 11 -45 25 -20 14 -45 25 -55 25 -9 0 -43 25 -74 56 -130 127
-262 177 -385 145 -19 -5 -56 -12 -81 -16 -44 -5 -139 -57 -148 -79 -2 -5 -14
-19 -26 -30 -67 -63 -119 -240 -118 -401 1 -147 60 -390 108 -445 7 -8 21 -31
30 -50 10 -19 29 -48 42 -65 61 -75 99 -115 109 -115 6 0 17 -7 25 -16 19 -23
137 -80 183 -88 40 -8 72 -24 74 -39 1 -4 15 -19 32 -33 16 -14 30 -31 30 -37
0 -7 9 -18 19 -24 16 -10 18 -9 14 7 -3 11 -10 17 -16 13 -6 -3 -7 -1 -3 5 10
17 26 15 26 -3 0 -8 9 -19 21 -25 17 -10 18 -14 7 -27 -12 -15 -11 -15 12 -3
l24 13 -22 15 c-26 17 -28 28 -6 36 14 5 15 4 4 -9 -13 -16 -5 -20 29 -15 14
2 31 -17 31 -34 0 -4 -9 -6 -20 -3 -10 3 -24 -1 -30 -8 -15 -18 22 -26 38 -8
10 10 16 11 26 1 8 -7 12 -15 10 -17 -6 -7 30 -30 38 -25 13 8 -11 44 -30 45
-14 0 -14 2 -2 6 8 3 27 17 43 31 15 14 27 24 28 21 0 -2 2 -15 3 -28 3 -22 2
-23 -11 -6 -14 20 -15 19 -17 -17 -1 -24 23 -58 37 -51 4 2 7 -3 7 -12 0 -13
2 -14 14 -3 10 9 11 15 2 20 -7 5 -5 8 7 8 9 0 18 5 18 10 1 6 2 14 3 19 2 19
16 24 31 11 12 -10 15 -10 15 4 0 9 -5 16 -12 16 -6 0 -4 6 7 13 12 10 14 16
7 21 -7 4 -12 15 -11 24 0 13 3 12 11 -5 10 -21 12 -22 24 -5 12 15 12 15 7
-5 -3 -13 -8 -23 -12 -23 -3 0 -6 -11 -6 -25 0 -14 3 -25 8 -25 4 0 7 -5 7
-11 0 -6 -7 -8 -16 -5 -13 5 -15 2 -11 -14 3 -11 1 -23 -4 -26 -11 -7 -2 -24
13 -24 5 0 8 7 4 15 -3 8 0 15 7 15 8 0 7 3 -2 9 -10 7 -2 12 28 18 35 6 45
14 56 40 12 29 12 32 -7 36 -14 4 -18 2 -14 -8 3 -8 1 -17 -5 -21 -6 -4 -6
-11 2 -20 9 -11 7 -14 -15 -14 -15 0 -25 4 -22 9 4 5 0 12 -6 15 -7 3 -6 4 4
3 9 -1 17 0 17 3 0 3 4 16 9 31 7 16 7 31 0 43 -9 15 -7 16 10 7 11 -6 23 -7
27 -3 4 4 3 -3 -3 -14 -10 -18 -8 -23 7 -27 10 -2 27 0 37 5 13 7 12 4 -4 -9
-20 -16 -22 -23 -13 -46 6 -15 12 -27 14 -27 2 0 17 12 33 26 16 15 23 23 17
20 -7 -4 -13 -2 -13 3 0 14 37 14 45 2 3 -6 33 -31 66 -56 57 -43 89 -59 189
-92 25 -8 53 -19 63 -24 10 -5 22 -7 26 -4 5 3 7 -3 4 -13 -6 -25 26 -59 38
-40 6 9 9 5 9 -12 0 -20 2 -22 10 -10 9 13 10 13 11 0 1 -8 1 -18 1 -21 -1 -3
13 -19 29 -35 19 -18 28 -23 24 -11 -5 12 -2 17 10 17 9 0 14 -4 11 -8 -3 -4
9 -7 25 -6 19 1 32 -3 36 -12 4 -12 8 -11 19 3 17 23 18 34 2 31 -8 -2 -12 5
-10 16 2 11 -1 15 -7 11 -6 -3 -11 -12 -11 -20 0 -8 -5 -17 -12 -21 -7 -5 -8
-3 -3 6 6 9 4 11 -4 6 -7 -5 -18 0 -26 10 -9 11 -14 14 -15 7 0 -7 -5 -13 -11
-13 -5 0 -7 6 -3 13 4 6 4 9 -1 5 -10 -10 -45 10 -45 25 0 7 4 6 10 -3 7 -11
10 -12 10 -2 0 10 4 10 15 -2 8 -8 24 -13 35 -11 11 2 18 0 15 -5 -3 -5 -1
-11 4 -15 5 -3 13 0 18 7 8 14 68 58 78 58 3 0 5 -5 5 -11 0 -5 -4 -7 -10 -4
-6 3 -8 -10 -5 -35 2 -26 -1 -45 -11 -54 -12 -13 -12 -15 6 -13 11 1 19 6 17
12 -5 13 33 46 44 39 4 -2 5 -12 2 -22 -8 -24 -34 -52 -43 -47 -4 2 -7 -2 -7
-10 0 -8 4 -15 9 -15 5 0 6 -5 2 -12 -4 -7 -3 -8 5 -4 6 4 9 10 7 14 -2 4 2
12 9 19 11 10 15 10 19 0 4 -7 4 -2 2 9 -3 17 2 23 25 28 22 4 27 9 22 22 -4
12 -3 15 5 10 7 -4 12 -2 12 3 0 6 5 11 11 11 6 0 9 -7 5 -15 -3 -8 -1 -15 4
-15 6 0 10 12 10 26 0 20 -4 25 -16 20 -14 -6 -15 -4 -4 9 12 14 14 14 22 1 5
-8 17 -13 28 -11 11 2 18 0 15 -5 -3 -5 -1 -11 4 -14 5 -3 11 5 13 18 3 17 1
23 -8 19 -7 -2 -20 -1 -29 5 -13 7 -8 9 19 10 34 1 36 0 37 -31 0 -30 1 -31
10 -8 6 15 6 28 -1 36 -7 8 -5 17 8 29 10 9 22 13 25 9 4 -3 7 1 7 11 0 10 5
14 12 10 6 -4 8 -3 4 4 -3 6 -2 13 4 17 5 3 10 0 10 -7 0 -9 3 -9 10 2 5 8 10
10 10 4 0 -5 -5 -15 -12 -22 -8 -8 -8 -15 1 -25 9 -12 8 -16 -5 -21 -24 -9
-28 -7 -14 9 7 8 9 15 4 15 -11 0 -36 -16 -34 -21 1 -2 -2 -12 -6 -22 -3 -10
-4 -20 -1 -24 3 -3 -1 -12 -9 -20 -8 -9 -12 -18 -9 -22 4 -3 11 2 16 12 11 19
64 23 75 5 4 -7 3 -8 -4 -4 -16 10 -15 -9 1 -23 10 -7 17 -7 24 0 8 8 13 7 18
0 4 -7 1 -10 -7 -9 -7 2 -12 -4 -10 -12 3 -12 1 -13 -9 -2 -20 19 -29 14 -29
-17 0 -25 -3 -29 -22 -25 -17 3 -16 1 5 -7 15 -6 27 -15 27 -20 0 -6 -6 -7
-12 -2 -18 11 -58 12 -64 1 -3 -5 -2 -8 3 -7 31 5 55 -2 49 -16 -3 -8 -1 -15
4 -15 6 0 10 5 10 10 0 6 7 10 16 10 14 0 14 -2 -1 -16 -9 -9 -14 -23 -10 -32
4 -11 2 -12 -7 -4 -10 8 -13 5 -13 -13 0 -19 3 -21 14 -12 12 10 14 9 9 -4 -5
-12 1 -16 24 -17 16 0 33 -4 37 -8 3 -4 -6 -5 -21 -2 -21 4 -29 1 -33 -13 -4
-11 -10 -19 -14 -19 -13 0 -31 -49 -24 -67 5 -12 3 -14 -7 -8 -9 5 -11 4 -6
-4 5 -7 13 -8 23 -2 11 6 22 3 36 -10 11 -10 25 -16 30 -12 6 3 7 1 3 -6 -4
-6 -12 -9 -17 -6 -5 4 -9 -12 -9 -34 0 -22 -5 -43 -11 -46 -7 -5 -5 -13 6 -25
10 -11 12 -20 7 -24 -6 -3 -12 -1 -14 5 -2 6 -12 0 -23 -13 -16 -18 -16 -20
-2 -9 9 8 21 10 25 6 4 -4 1 -10 -6 -12 -6 -3 -10 -9 -6 -14 9 -15 22 -10 27
8 4 14 5 13 6 -3 0 -12 -6 -25 -15 -28 -8 -3 -14 -14 -13 -23 3 -26 -12 -57
-21 -43 -5 8 -9 8 -13 -3 -3 -9 1 -14 11 -14 39 0 52 -4 52 -14 0 -6 -7 -9
-14 -6 -11 4 -13 1 -9 -10 5 -12 2 -15 -9 -11 -8 4 -15 1 -15 -7 0 -8 9 -12
24 -9 13 2 23 0 23 -6 0 -5 -5 -10 -11 -10 -5 0 -7 -5 -3 -12 4 -6 3 -8 -3 -5
-6 4 -19 0 -29 -8 -19 -13 -19 -13 1 -12 27 3 33 -33 7 -40 -11 -3 -23 -15
-26 -26 -5 -20 -4 -21 8 -4 21 27 34 20 33 -17 -1 -21 -5 -32 -11 -29 -6 4 -2
-3 8 -15 11 -12 15 -22 10 -22 -5 0 -14 -10 -19 -22 -7 -16 -23 -25 -52 -31
-47 -9 -100 3 -213 46 -36 14 -95 37 -133 51 -37 14 -85 35 -107 46 -21 11
-44 20 -51 20 -6 0 -37 11 -68 24 -31 14 -110 46 -176 71 -66 25 -135 53 -152
61 -18 8 -51 21 -73 29 -22 8 -55 21 -73 29 -17 8 -61 26 -97 40 -84 31 -205
79 -252 100 -21 9 -43 16 -50 16 -19 0 172 -83 267 -116 22 -8 65 -25 95 -38
83 -36 160 -67 205 -82 22 -8 65 -25 95 -38 70 -30 149 -62 225 -91 101 -38
208 -81 245 -98 19 -8 64 -26 100 -40 36 -13 97 -36 135 -51 39 -15 97 -31
130 -36 79 -13 88 -13 79 3 -5 7 -1 7 10 -2 22 -18 353 -26 373 -9 9 8 13 7
13 -2 0 -8 2 -11 6 -8 3 3 21 2 40 -2 29 -7 34 -6 30 6 -5 14 15 15 64 5 3 -1
-2 -6 -10 -11 -11 -7 -11 -10 -2 -10 17 0 57 38 49 47 -4 3 -7 1 -7 -4 0 -17
-35 -8 -38 9 -4 20 37 16 53 -5 15 -21 25 -22 25 -2 0 12 3 13 19 3 11 -7 18
-15 15 -19 -2 -4 2 -12 10 -18 11 -9 12 -6 8 15 -2 14 -11 28 -18 31 -20 8
-17 19 6 20 11 1 20 -4 19 -10 -3 -24 3 -52 8 -39 4 10 8 10 19 1 16 -13 18
-2 5 33 -5 13 -4 32 1 43 8 19 8 19 4 -2 -5 -28 21 -39 29 -12 4 10 11 19 17
19 6 0 6 -6 -2 -15 -7 -8 -9 -15 -5 -15 4 0 2 -6 -4 -14 -10 -12 -9 -13 8 -9
13 3 21 -1 24 -14 5 -16 6 -16 5 2 -1 47 2 60 11 46 6 -9 11 -10 15 -2 4 6 12
9 17 5 6 -4 3 -14 -8 -26 -13 -15 -15 -22 -5 -25 6 -3 10 -9 7 -13 -3 -5 -1
-11 5 -15 5 -3 10 -1 10 5 0 6 4 9 8 6 13 -8 35 11 28 23 -11 17 -26 13 -20
-4 5 -11 2 -13 -10 -9 -17 7 -22 34 -6 34 6 0 8 11 4 26 -6 21 -4 25 7 19 11
-6 12 -5 2 6 -15 16 -17 43 -3 34 6 -4 7 -11 4 -17 -4 -6 1 -8 12 -6 11 2 19
12 18 24 0 18 20 24 46 14 3 -1 7 -2 10 -2 3 0 7 -8 7 -19 1 -10 -3 -19 -8
-19 -6 0 -7 -4 -4 -10 3 -5 1 -10 -5 -10 -6 0 -8 -4 -5 -10 8 -14 -18 -13 -32
1 -7 7 -13 7 -17 1 -6 -10 53 -36 62 -27 3 3 11 0 19 -6 18 -16 17 -1 -2 17
-12 13 -13 20 -3 37 18 33 18 46 0 57 -14 9 -12 10 8 4 20 -5 23 -4 13 7 -14
14 -19 58 -6 45 4 -4 8 -15 8 -23 0 -9 6 -18 14 -21 9 -3 11 0 6 8 -6 9 -4 11
4 5 9 -5 7 -12 -8 -26 -13 -12 -18 -25 -14 -36 5 -14 8 -14 11 -2 3 7 13 22
23 32 14 13 17 23 10 36 -7 13 -6 18 3 18 8 0 12 -10 10 -24 -3 -29 3 -29 41
3 21 17 24 23 10 18 -21 -7 -20 -6 6 14 13 10 16 9 16 -6 0 -9 -4 -23 -9 -29
-6 -7 -7 -24 -4 -38 4 -14 2 -25 -4 -25 -5 0 -10 14 -10 31 0 16 -4 28 -8 25
-11 -6 -9 -52 1 -62 11 -11 38 -14 31 -3 -3 5 3 9 12 9 16 0 16 1 -2 16 -19
15 -19 16 1 10 20 -6 20 -6 1 9 -17 13 -15 19 5 17 4 -1 5 9 2 21 -4 21 -4 21
8 2 6 -11 21 -28 33 -38 l21 -18 -25 6 c-17 4 -21 3 -11 -3 11 -8 11 -10 0
-15 -8 -3 6 -3 31 0 46 6 69 17 57 29 -4 4 -13 1 -22 -6 -13 -11 -19 -10 -36
6 -24 22 -47 60 -30 50 6 -4 11 0 11 11 0 15 2 16 11 3 8 -11 12 -12 16 -2 2
6 9 10 14 6 5 -3 9 0 9 6 0 15 22 35 38 35 6 0 12 3 12 8 0 4 0 12 0 18 0 5
-4 8 -9 4 -5 -3 -13 0 -17 6 -5 9 0 10 14 7 15 -4 20 -3 15 5 -14 22 -14 49
-1 41 7 -4 4 3 -7 16 l-20 23 23 -12 c23 -12 28 -31 12 -47 -6 -6 -3 -10 10
-10 12 0 19 5 16 13 -3 7 1 10 8 7 8 -3 17 -1 21 5 3 6 11 11 17 11 5 0 0 -8
-13 -19 l-23 -18 40 2 c54 3 56 4 49 14 -3 5 4 16 16 25 21 15 21 15 -7 14
-44 -1 -54 1 -54 11 0 5 11 11 25 13 14 3 25 1 25 -4 0 -5 7 -2 16 6 8 9 19
14 24 11 4 -3 13 1 19 9 12 14 -1 14 -57 2 -13 -3 -20 -1 -17 5 4 5 -2 9 -12
10 -11 0 -13 3 -5 6 6 2 10 9 6 14 -3 5 -2 8 3 7 15 -5 65 40 51 45 -10 4 -9
8 3 18 19 16 30 44 22 53 -4 3 -12 1 -20 -5 -9 -8 -10 -15 -3 -24 8 -9 7 -14
-3 -18 -22 -8 -62 17 -62 38 -1 11 -5 27 -10 35 -7 13 -6 13 7 2 9 -7 15 -22
13 -33 -5 -26 11 -15 18 12 3 11 3 18 0 15 -4 -3 -13 0 -22 7 -31 26 -122 77
-183 103 -35 14 -66 29 -71 33 -4 4 2 27 14 50 24 49 48 306 49 511 0 63 5
169 10 235 38 473 74 1055 75 1195 0 89 -17 143 -45 146 -8 1 -37 -7 -65 -18z
m-2836 -251 l52 -35 -41 -38 c-22 -21 -40 -44 -40 -50 0 -7 -11 -21 -24 -31
-25 -20 -44 -63 -28 -63 6 0 23 15 40 34 17 19 34 32 38 28 4 -4 4 -2 1 5 -8
13 56 83 77 83 8 0 18 -4 21 -10 3 -5 0 -10 -8 -10 -8 0 -25 -8 -38 -18 -17
-15 -19 -21 -9 -27 8 -5 11 -4 7 2 -4 6 0 14 9 17 8 3 12 2 9 -4 -3 -6 1 -10
9 -10 10 0 13 6 9 18 -7 18 -5 17 17 -12 12 -16 12 -18 1 -11 -10 5 -12 4 -7
-4 4 -6 15 -9 25 -6 25 8 64 -39 105 -125 63 -134 88 -324 60 -460 -9 -41 -20
-79 -25 -84 -5 -6 -30 -6 -63 0 -51 10 -54 9 -45 -8 5 -10 13 -18 17 -18 4 0
19 -9 34 -21 l26 -21 -19 -33 c-11 -18 -37 -45 -59 -60 -34 -24 -46 -26 -84
-21 -24 4 -49 13 -55 19 -17 21 -30 163 -19 203 8 30 7 38 -9 50 -10 7 -13 13
-8 13 6 0 19 -6 29 -14 25 -19 128 -20 164 -1 36 19 71 84 79 144 7 60 -11
172 -35 216 -38 70 -138 145 -195 146 -31 0 -97 -40 -109 -65 -15 -33 -30 -32
-17 1 5 15 8 29 5 31 -7 8 -47 -52 -53 -79 -3 -16 -10 -31 -15 -34 -14 -9 -38
62 -38 116 0 27 -3 50 -7 50 -5 0 -35 -7 -68 -14 -33 -8 -61 -13 -63 -11 -8 8
32 112 59 155 29 47 73 93 99 104 8 3 42 4 76 1 48 -3 72 -11 113 -38z m1037
-178 c35 -18 76 -43 91 -56 24 -19 25 -22 9 -23 -15 0 -16 -3 -6 -15 7 -8 9
-15 4 -15 -4 0 -3 -5 4 -12 8 -8 9 -15 1 -25 -8 -9 -4 -15 17 -24 16 -6 39
-16 51 -21 11 -6 26 -7 32 -4 6 4 11 3 11 -3 0 -5 -4 -12 -10 -16 -18 -11 2
-35 36 -41 18 -3 33 -9 32 -13 -1 -3 13 -35 32 -71 37 -74 70 -201 69 -275 0
-97 -63 -198 -148 -238 -54 -26 -180 -30 -221 -7 -23 12 -24 12 -11 -3 24 -30
104 -84 184 -125 l77 -40 -28 -30 c-46 -49 -130 -64 -227 -39 -46 12 -50 16
-58 53 -8 41 -5 145 7 179 5 17 -4 26 -59 59 -36 21 -63 41 -61 44 3 2 18 -4
33 -14 21 -14 47 -18 104 -19 68 0 80 3 114 29 58 44 80 103 80 211 -1 156
-45 236 -164 296 -98 49 -195 32 -247 -44 l-32 -46 -5 29 c-6 27 -44 77 -94
123 -13 11 -23 28 -23 36 0 38 86 140 155 183 48 31 167 20 251 -23z m159
-159 c3 -6 -1 -7 -9 -4 -18 7 -21 14 -7 14 6 0 13 -4 16 -10z m-1400 -122 c4
-46 10 -87 14 -93 3 -5 11 -59 18 -120 6 -60 18 -137 26 -170 l16 -60 -37 41
c-90 99 -133 181 -167 314 -35 136 -35 134 28 152 96 28 94 29 102 -64z m804
-197 c11 -66 1 -129 -12 -80 -4 13 -10 58 -13 99 -6 90 9 78 25 -19z m-103
-395 c-20 -32 -121 -79 -179 -84 -52 -4 -128 15 -130 32 -1 5 16 15 38 23 39
13 110 71 151 123 10 14 30 32 44 41 l25 17 31 -67 c26 -55 30 -69 20 -85z
m307 -76 c3 -11 1 -18 -4 -14 -5 3 -9 12 -9 20 0 20 7 17 13 -6z m768 -81 c1
-46 6 -90 13 -98 7 -10 7 -13 0 -8 -7 4 -11 -7 -12 -29 -1 -19 -4 -39 -7 -44
-4 -6 -2 -10 4 -10 19 0 3 -35 -18 -38 -12 -2 -19 -8 -16 -13 4 -5 2 -9 -3 -9
-6 0 -12 7 -16 15 -5 14 -64 15 -228 1 -21 -2 -35 1 -32 5 3 5 -4 9 -15 9 -37
0 -22 17 28 33 85 27 191 111 239 187 37 61 57 89 59 86 2 -1 3 -40 4 -87z
m-1417 6 c-7 -16 -24 -21 -24 -6 0 8 7 13 27 20 1 1 0 -6 -3 -14z m441 -3 c-3
-3 -11 0 -18 7 -9 10 -8 11 6 5 10 -3 15 -9 12 -12z m-315 -12 c0 -5 -5 -10
-11 -10 -5 0 -7 5 -4 10 3 6 8 10 11 10 2 0 4 -4 4 -10z m16 -13 c0 -14 -7
-24 -15 -23 -8 1 -16 -4 -18 -11 -3 -7 4 -10 19 -7 21 4 21 4 3 -5 -40 -17
-47 10 -12 44 12 13 23 23 23 24 1 1 1 -10 0 -22z m-56 -2 c-14 -16 -25 -21
-16 -6 4 5 0 12 -6 14 -7 3 -2 6 11 6 20 1 21 -1 11 -14z m190 5 c0 -5 -5 -10
-11 -10 -5 0 -7 5 -4 10 3 6 8 10 11 10 2 0 4 -4 4 -10z m1185 -30 c-3 -5 -10
-10 -16 -10 -5 0 -9 5 -9 10 0 6 7 10 16 10 8 0 12 -4 9 -10z m-1200 -20 c-11
-5 -27 -9 -35 -9 -13 -1 -13 0 0 9 8 5 24 9 35 9 l20 0 -20 -9z m-24 -37 c12
-15 12 -16 -3 -10 -10 3 -18 2 -18 -3 0 -6 -5 -10 -11 -10 -5 0 -7 5 -4 10 3
6 0 10 -7 11 -7 0 -4 4 7 9 11 5 21 9 21 9 1 1 8 -7 15 -16z m1215 -48 c-2 -7
0 -17 5 -22 6 -6 3 -15 -8 -23 -15 -12 -16 -12 -6 0 10 11 10 17 -3 31 -9 10
-13 23 -9 29 9 14 28 1 21 -15z m58 -81 c20 -8 21 -20 2 -27 -10 -4 -13 -1 -9
9 7 20 -7 18 -24 -3 -13 -16 -13 -16 -3 5 12 24 12 24 34 16z m-601 -39 c-7
-21 -12 -19 -10 4 0 11 5 18 9 15 4 -3 5 -11 1 -19z m105 -22 c-12 -14 -28 -8
-27 10 0 9 2 8 6 -1 7 -18 23 -4 17 16 -5 14 -4 14 4 2 8 -10 8 -18 0 -27z
m339 11 c-3 -3 -12 -4 -19 -1 -8 3 -5 6 6 6 11 1 17 -2 13 -5z m112 -29 c-13
-13 -31 -25 -39 -25 -13 0 -13 1 0 10 13 8 12 10 -3 10 -10 0 -16 4 -12 10 3
5 11 7 18 4 7 -2 21 2 32 10 29 21 31 10 4 -19z m-395 11 c-10 -8 -21 -12 -24
-10 -5 6 21 24 34 24 6 0 1 -6 -10 -14z m156 -21 c0 -2 -6 -5 -13 -8 -8 -3
-14 1 -14 8 0 7 6 11 14 8 7 -3 13 -6 13 -8z m17 -17 c-3 -8 -6 -5 -6 6 -1 11
2 17 5 13 3 -3 4 -12 1 -19z m253 12 c0 -5 -2 -10 -4 -10 -3 0 -8 5 -11 10 -3
6 -1 10 4 10 6 0 11 -4 11 -10z m-316 -12 c-3 -4 -9 -8 -15 -8 -5 0 -9 4 -9 8
0 5 7 9 15 9 8 0 12 -4 9 -9z m326 -18 c0 -5 -2 -10 -4 -10 -3 0 -8 5 -11 10
-3 6 -1 10 4 10 6 0 11 -4 11 -10z m-283 -15 c0 -8 -4 -15 -8 -15 -11 0 -20
16 -12 24 11 11 20 7 20 -9z m269 -72 c-10 -11 -19 -7 -22 10 -2 15 0 16 12 6
8 -6 12 -14 10 -16z m24 -32 c0 -6 -5 -13 -12 -17 -6 -4 -8 -3 -4 4 3 6 -2 13
-11 15 -14 4 -13 5 5 6 12 0 22 -3 22 -8z m-8 -49 c-7 -2 -10 -7 -7 -12 3 -4
-1 -10 -9 -13 -15 -6 -16 9 -3 31 5 7 13 9 20 5 8 -5 8 -8 -1 -11z m15 -34
c-3 -8 -6 -5 -6 6 -1 11 2 17 5 13 3 -3 4 -12 1 -19z m-46 -97 c7 12 10 12 21
0 7 -8 8 -11 2 -8 -7 4 -14 0 -18 -8 -3 -8 -1 -15 4 -15 6 0 10 -7 10 -15 0
-8 -5 -15 -11 -15 -5 0 -7 5 -4 10 5 9 -15 15 -37 11 -11 -1 -10 7 4 32 8 15
13 18 16 8 4 -11 6 -11 13 0z m79 -1 c0 -5 -2 -10 -4 -10 -3 0 -8 5 -11 10 -3
6 -1 10 4 10 6 0 11 -4 11 -10z m1287 -212 c-3 -8 -6 -5 -6 6 -1 11 2 17 5 13
3 -3 4 -12 1 -19z m77 -25 c-13 -10 -14 -13 -3 -13 12 0 12 -2 -1 -10 -8 -5
-19 -10 -25 -10 -5 0 -4 4 3 9 8 4 13 11 13 15 -3 18 0 23 15 23 14 0 14 -2
-2 -14z m-1414 -68 c-10 -12 -10 -15 1 -16 12 0 12 -1 0 -6 -10 -4 -10 -7 -1
-13 9 -5 8 -9 -3 -13 -13 -5 -14 6 -8 56 1 4 6 7 12 7 8 0 8 -5 -1 -15z m1309
-18 c0 -9 -2 -8 -6 1 -2 6 -10 9 -15 6 -7 -4 -8 -2 -4 5 9 13 26 5 25 -12z
m54 -14 c-3 -7 -10 -13 -15 -13 -6 0 -5 -6 2 -15 14 -17 7 -19 -20 -5 -18 10
-18 12 -4 29 18 21 45 24 37 4z m57 -46 c0 -2 -9 -12 -20 -22 -19 -17 -20 -17
-20 -1 0 9 5 14 10 11 6 -3 10 -1 10 4 0 6 5 11 10 11 6 0 10 -2 10 -3z m-160
-29 c0 -6 -3 -8 -7 -5 -3 4 -12 2 -19 -4 -8 -7 -14 -6 -20 2 -4 7 -3 9 4 5 6
-3 13 -2 17 4 8 14 25 13 25 -2z m-72 -24 c-4 -3 -2 -19 2 -35 8 -27 7 -28
-11 -19 -10 6 -19 13 -19 16 0 3 5 2 11 -2 6 -3 10 1 9 12 -3 26 -1 34 7 34 3
0 4 -3 1 -6z m46 -34 c-22 -9 -29 -6 -20 9 4 6 14 7 23 4 15 -6 14 -7 -3 -13z
m-1234 -10 c0 -5 -5 -10 -11 -10 -5 0 -7 5 -4 10 3 6 8 10 11 10 2 0 4 -4 4
-10z m1130 -20 c0 -5 -5 -10 -11 -10 -5 0 -7 5 -4 10 3 6 8 10 11 10 2 0 4 -4
4 -10z m-189 -24 c-6 -7 -8 -15 -5 -18 2 -3 -2 -8 -11 -12 -13 -5 -14 -2 -3
17 7 12 11 26 10 30 -1 5 2 6 8 2 8 -5 8 -11 1 -19z m159 0 c0 -2 -7 -7 -16
-10 -8 -3 -12 -2 -9 4 6 10 25 14 25 6z m-321 -120 c-3 -3 -11 5 -18 17 -13
21 -12 21 5 5 10 -10 16 -20 13 -22z m-59 -5 c-9 -17 -40 -24 -40 -9 0 6 7 8
15 4 8 -3 15 -1 15 3 0 5 -6 11 -12 14 -7 3 -3 4 9 4 16 -1 20 -5 13 -16z
m124 0 c8 -13 -3 -19 -24 -14 -11 3 -17 9 -14 14 7 11 31 12 38 0z m-224 -36
c5 3 12 0 15 -6 5 -7 1 -10 -10 -7 -10 1 -20 9 -21 16 -1 7 0 8 3 2 2 -5 9 -8
13 -5z m-79 -32 c12 -16 12 -17 -2 -6 -9 7 -20 9 -24 5 -5 -4 -5 -1 -1 6 9 16
11 15 27 -5z m-115 -5 c4 -6 3 -8 -4 -4 -6 3 -13 2 -17 -4 -3 -5 -12 -10 -18
-10 -7 0 -3 7 7 15 24 18 23 18 32 3z"/>
<path d="M2046 2828 c-24 -29 -26 -30 -26 -10 0 12 5 22 12 22 6 0 8 3 5 7 -4
3 -15 -1 -24 -10 -10 -8 -22 -16 -28 -16 -5 0 -11 -5 -14 -12 -2 -7 1 -9 8 -5
15 10 14 -7 -1 -23 -11 -10 -10 -11 5 -6 9 4 17 14 17 23 0 12 5 11 24 -7 16
-15 26 -19 31 -12 3 7 3 11 -2 10 -20 -3 -25 2 -13 16 7 8 16 12 21 9 5 -3 9
4 9 15 0 10 6 22 13 24 7 3 8 6 1 6 -6 1 -23 -13 -38 -31z"/>
<path d="M2108 2853 c20 -8 14 -26 -7 -20 -13 3 -18 1 -14 -8 6 -17 33 -28 33
-13 0 7 4 7 14 -1 11 -9 15 -9 19 1 4 10 6 10 6 -1 1 -8 -7 -20 -16 -28 -16
-13 -16 -13 3 -4 12 6 25 7 29 3 5 -4 5 -1 1 6 -4 6 -2 12 3 12 6 0 11 5 11
11 0 5 -4 7 -10 4 -10 -6 -14 7 -11 33 2 15 -15 16 -25 0 -5 -7 -3 -8 6 -3 9
6 11 4 5 -5 -6 -10 -11 -10 -20 3 -7 10 -18 17 -26 16 -10 0 -11 -2 -1 -6z"/>
<path d="M1890 2745 c-7 -9 -11 -17 -9 -20 3 -2 10 5 17 15 14 24 10 26 -8 5z"/>
<path d="M2254 2735 c3 -21 16 -31 16 -12 0 9 -4 18 -9 21 -5 4 -8 -1 -7 -9z"/>
<path d="M1483 1798 c-2 -18 0 -20 7 -8 12 18 13 30 2 30 -4 0 -9 -10 -9 -22z"/>
<path d="M1303 1785 c0 -8 4 -15 9 -15 4 0 8 4 8 9 0 6 -4 12 -8 15 -5 3 -9
-1 -9 -9z"/>
<path d="M1627 1784 c-4 -4 -19 -7 -34 -8 -18 -1 -29 -7 -31 -19 -3 -14 0 -16
20 -8 13 5 27 9 31 9 12 2 40 32 29 32 -5 0 -12 -3 -15 -6z"/>
<path d="M1391 1754 c0 -11 3 -14 6 -6 3 7 2 16 -1 19 -3 4 -6 -2 -5 -13z"/>
<path d="M1220 1636 c0 -61 2 -66 28 -80 29 -15 242 -91 302 -107 19 -6 62
-21 95 -34 33 -13 92 -33 130 -45 39 -12 74 -26 79 -31 6 -5 18 -9 28 -9 10 0
53 -13 96 -30 42 -16 92 -32 110 -36 l32 -6 0 69 c0 81 -10 95 -80 113 -25 6
-160 50 -300 97 -140 47 -275 91 -300 98 -25 7 -70 22 -100 33 -30 11 -70 23
-87 27 l-33 7 0 -66z"/>
<path d="M2326 1577 c3 -10 9 -15 12 -12 3 3 0 11 -7 18 -10 9 -11 8 -5 -6z"/>
<path d="M2516 1546 c3 -9 11 -16 16 -16 13 0 5 23 -10 28 -7 2 -10 -2 -6 -12z"/>
<path d="M2545 1517 c-13 -15 -13 -33 -1 -44 5 -4 6 -3 3 4 -4 6 0 18 8 26 8
9 15 18 15 21 0 10 -14 6 -25 -7z"/>
<path d="M2470 1515 c0 -2 6 -8 13 -14 10 -8 14 -7 14 2 0 8 -6 14 -14 14 -7
0 -13 -1 -13 -2z"/>
<path d="M2589 1503 c-13 -16 -12 -17 4 -4 16 13 21 21 13 21 -2 0 -10 -8 -17
-17z"/>
<path d="M2282 1480 c2 -8 14 -15 25 -16 15 -1 20 3 15 14 -4 11 -7 12 -10 4
-3 -10 -7 -10 -20 0 -13 11 -14 11 -10 -2z"/>
<path d="M2503 1456 c3 -8 -1 -22 -8 -33 -13 -17 -14 -17 -8 5 4 18 2 21 -11
16 -9 -3 -14 -10 -11 -14 3 -5 -2 -13 -11 -18 -12 -6 -7 -9 19 -8 20 1 35 5
34 11 -1 5 6 9 16 7 21 -4 23 14 1 22 -8 3 -12 10 -9 16 3 5 1 10 -5 10 -7 0
-10 -6 -7 -14z"/>
<path d="M2427 1445 c3 -8 9 -12 14 -9 12 7 11 11 -5 17 -10 4 -13 1 -9 -8z"/>
<path d="M2387 1443 c-4 -3 -7 -11 -7 -17 0 -6 5 -5 12 2 6 6 9 14 7 17 -3 3
-9 2 -12 -2z"/>
<path d="M2576 1435 c4 -8 7 -15 9 -15 2 0 5 7 9 15 3 9 0 15 -9 15 -9 0 -12
-6 -9 -15z"/>
<path d="M2601 1387 c-8 -10 -7 -14 4 -14 8 0 15 6 15 14 0 7 -2 13 -4 13 -2
0 -9 -6 -15 -13z"/>
<path d="M2631 1354 c0 -11 3 -14 6 -6 3 7 2 16 -1 19 -3 4 -6 -2 -5 -13z"/>
<path d="M2614 1299 c-5 -8 -3 -9 6 -4 10 6 12 4 7 -8 -3 -10 -2 -17 3 -17 16
0 20 18 6 29 -11 9 -16 9 -22 0z"/>
<path d="M1103 1119 c21 -11 44 -18 50 -16 7 2 -5 12 -27 21 -54 22 -69 19
-23 -5z"/>
<path d="M2654 1132 c4 -7 2 -12 -5 -12 -9 0 -9 -4 1 -15 6 -8 9 -19 5 -26 -6
-8 -2 -8 14 0 25 14 28 31 5 31 -8 0 -13 4 -9 9 3 5 0 13 -6 17 -8 4 -9 3 -5
-4z"/>
<path d="M4151 1091 c-7 -5 -12 -14 -10 -20 2 -6 10 -2 17 9 14 22 13 23 -7
11z"/>
<path d="M2645 1039 c-4 -6 -5 -12 -2 -15 2 -3 7 2 10 11 7 17 1 20 -8 4z"/>
<path d="M4191 1014 c0 -11 3 -14 6 -6 3 7 2 16 -1 19 -3 4 -6 -2 -5 -13z"/>
<path d="M4149 964 c-5 -15 -7 -29 -5 -32 3 -3 8 3 12 12 3 9 10 14 14 11 5
-3 6 4 3 15 -7 26 -12 25 -24 -6z"/>
<path d="M4177 879 c4 -13 8 -18 11 -10 2 7 -1 18 -6 23 -8 8 -9 4 -5 -13z"/>
<path d="M4150 836 c0 -8 4 -17 9 -20 5 -4 7 3 4 14 -6 23 -13 26 -13 6z"/>
<path d="M4019 813 c-6 -34 -5 -53 2 -53 5 0 9 5 9 11 0 5 6 7 13 4 6 -4 5 -1
-4 7 -9 7 -14 19 -12 26 3 6 2 12 -1 12 -3 0 -7 -3 -7 -7z"/>
<path d="M4040 803 c0 -7 7 -13 16 -13 11 0 15 -6 11 -20 -3 -11 -2 -20 2 -20
16 0 20 13 10 31 -8 15 -6 19 7 19 27 0 7 13 -21 15 -14 0 -25 -5 -25 -12z"/>
<path d="M4240 760 c0 -6 7 -10 15 -10 8 0 15 2 15 4 0 2 -7 6 -15 10 -8 3
-15 1 -15 -4z"/>
<path d="M4040 753 c0 -22 -3 -28 -19 -40 -14 -10 -14 -12 -1 -17 20 -7 48 -2
61 11 9 9 7 11 -4 9 -9 -1 -20 -5 -23 -9 -4 -4 -14 -7 -22 -7 -10 0 -8 5 7 18
15 12 18 21 11 32 -6 10 -10 11 -10 3z"/>
<path d="M3952 723 c-12 -14 -19 -30 -15 -36 4 -6 10 -2 14 11 5 12 15 22 24
22 8 0 15 4 15 9 0 21 -17 18 -38 -6z"/>
<path d="M4005 740 c3 -5 8 -10 11 -10 2 0 4 5 4 10 0 6 -5 10 -11 10 -5 0 -7
-4 -4 -10z"/>
<path d="M3978 703 c-26 -7 -22 -19 6 -19 15 0 22 5 19 13 -3 7 -6 12 -7 12 0
-1 -9 -3 -18 -6z"/>
<path d="M3900 691 c0 -5 7 -11 14 -14 10 -4 13 -1 9 9 -6 15 -23 19 -23 5z"/>
<path d="M3765 645 c-16 -7 -24 -14 -17 -15 35 -6 45 -3 48 13 1 9 2 17 1 17
-1 -1 -15 -7 -32 -15z"/>
<path d="M3637 625 c-11 -16 -13 -26 -7 -30 13 -8 40 13 40 31 0 23 -15 23
-33 -1z"/>
<path d="M3778 603 c7 -3 16 -2 19 1 4 3 -2 6 -13 5 -11 0 -14 -3 -6 -6z"/>
<path d="M3856 595 c-18 -13 -18 -14 2 -12 11 0 19 4 16 8 -2 4 2 10 8 12 7 3
9 6 3 6 -5 0 -18 -6 -29 -14z"/>
<path d="M3706 588 c3 -4 13 -8 22 -8 10 0 13 -3 7 -8 -5 -4 -11 -14 -13 -22
-2 -11 2 -9 13 4 8 10 12 22 10 27 -3 4 1 9 7 12 7 3 -1 5 -19 4 -18 0 -30 -4
-27 -9z"/>
<path d="M3781 563 c-1 -6 -4 -20 -7 -30 -5 -17 -5 -17 6 0 6 10 9 23 6 30 -3
9 -5 9 -5 0z"/>
<path d="M3630 541 c12 -8 13 -14 3 -30 -10 -16 -9 -18 7 -14 14 4 17 10 11
26 -4 12 -14 23 -22 25 -11 3 -11 1 1 -7z"/>
<path d="M3496 503 c-6 -14 -5 -15 5 -6 7 7 10 15 7 18 -3 3 -9 -2 -12 -12z"/>
<path d="M3528 483 c7 -3 16 -2 19 1 4 3 -2 6 -13 5 -11 0 -14 -3 -6 -6z"/>
</g>
</svg>
